<svg width="390" height="123" viewBox="0 0 390 123" fill="none" xmlns="http://www.w3.org/2000/svg">
<g filter="url(#filter0_d)">
<rect width="381" height="114" rx="57" fill="#070707"/>
<path d="M55.76 65.4H67.84V71H48V65.8L60 48.52H48V42.92H67.84V48.12L55.76 65.4ZM82.4681 71.32C80.2815 71.32 78.3081 70.8533 76.5481 69.92C74.8148 68.9867 73.4415 67.6533 72.4281 65.92C71.4415 64.1867 70.9481 62.16 70.9481 59.84C70.9481 57.5467 71.4548 55.5333 72.4681 53.8C73.4815 52.04 74.8681 50.6933 76.6281 49.76C78.3881 48.8267 80.3615 48.36 82.5481 48.36C84.7348 48.36 86.7081 48.8267 88.4681 49.76C90.2281 50.6933 91.6148 52.04 92.6281 53.8C93.6415 55.5333 94.1481 57.5467 94.1481 59.84C94.1481 62.1333 93.6281 64.16 92.5881 65.92C91.5748 67.6533 90.1748 68.9867 88.3881 69.92C86.6281 70.8533 84.6548 71.32 82.4681 71.32ZM82.4681 65.4C83.7748 65.4 84.8815 64.92 85.7881 63.96C86.7215 63 87.1881 61.6267 87.1881 59.84C87.1881 58.0533 86.7348 56.68 85.8281 55.72C84.9481 54.76 83.8548 54.28 82.5481 54.28C81.2148 54.28 80.1081 54.76 79.2281 55.72C78.3481 56.6533 77.9081 58.0267 77.9081 59.84C77.9081 61.6267 78.3348 63 79.1881 63.96C80.0681 64.92 81.1615 65.4 82.4681 65.4ZM111.497 48.44C114.057 48.44 116.11 49.2933 117.657 51C119.204 52.68 119.977 55 119.977 57.96V71H113.177V58.88C113.177 57.3867 112.79 56.2267 112.017 55.4C111.244 54.5733 110.204 54.16 108.897 54.16C107.59 54.16 106.55 54.5733 105.777 55.4C105.004 56.2267 104.617 57.3867 104.617 58.88V71H97.7769V41.4H104.617V51.68C105.31 50.6933 106.257 49.9067 107.457 49.32C108.657 48.7333 110.004 48.44 111.497 48.44ZM123.37 59.8C123.37 57.5067 123.797 55.4933 124.65 53.76C125.53 52.0267 126.717 50.6933 128.21 49.76C129.703 48.8267 131.37 48.36 133.21 48.36C134.783 48.36 136.157 48.68 137.33 49.32C138.53 49.96 139.45 50.8 140.09 51.84V48.68H146.93V71H140.09V67.84C139.423 68.88 138.49 69.72 137.29 70.36C136.117 71 134.743 71.32 133.17 71.32C131.357 71.32 129.703 70.8533 128.21 69.92C126.717 68.96 125.53 67.6133 124.65 65.88C123.797 64.12 123.37 62.0933 123.37 59.8ZM140.09 59.84C140.09 58.1333 139.61 56.7867 138.65 55.8C137.717 54.8133 136.57 54.32 135.21 54.32C133.85 54.32 132.69 54.8133 131.73 55.8C130.797 56.76 130.33 58.0933 130.33 59.8C130.33 61.5067 130.797 62.8667 131.73 63.88C132.69 64.8667 133.85 65.36 135.21 65.36C136.57 65.36 137.717 64.8667 138.65 63.88C139.61 62.8933 140.09 61.5467 140.09 59.84ZM155.318 46.36C154.118 46.36 153.132 46.0133 152.358 45.32C151.612 44.6 151.238 43.72 151.238 42.68C151.238 41.6133 151.612 40.7333 152.358 40.04C153.132 39.32 154.118 38.96 155.318 38.96C156.492 38.96 157.452 39.32 158.198 40.04C158.972 40.7333 159.358 41.6133 159.358 42.68C159.358 43.72 158.972 44.6 158.198 45.32C157.452 46.0133 156.492 46.36 155.318 46.36ZM158.718 48.68V71H151.878V48.68H158.718ZM170.515 51.84C171.155 50.8 172.075 49.96 173.275 49.32C174.475 48.68 175.849 48.36 177.395 48.36C179.235 48.36 180.902 48.8267 182.395 49.76C183.889 50.6933 185.062 52.0267 185.915 53.76C186.795 55.4933 187.235 57.5067 187.235 59.8C187.235 62.0933 186.795 64.12 185.915 65.88C185.062 67.6133 183.889 68.96 182.395 69.92C180.902 70.8533 179.235 71.32 177.395 71.32C175.822 71.32 174.449 71.0133 173.275 70.4C172.102 69.76 171.182 68.92 170.515 67.88V71H163.675V41.4H170.515V51.84ZM180.275 59.8C180.275 58.0933 179.795 56.76 178.835 55.8C177.902 54.8133 176.742 54.32 175.355 54.32C173.995 54.32 172.835 54.8133 171.875 55.8C170.942 56.7867 170.475 58.1333 170.475 59.84C170.475 61.5467 170.942 62.8933 171.875 63.88C172.835 64.8667 173.995 65.36 175.355 65.36C176.715 65.36 177.875 64.8667 178.835 63.88C179.795 62.8667 180.275 61.5067 180.275 59.8ZM216.78 66.04H206.3L204.62 71H197.46L207.62 42.92H215.54L225.7 71H218.46L216.78 66.04ZM215.02 60.76L211.54 50.48L208.1 60.76H215.02ZM227.433 59.8C227.433 57.5067 227.859 55.4933 228.713 53.76C229.593 52.0267 230.779 50.6933 232.273 49.76C233.766 48.8267 235.433 48.36 237.273 48.36C238.739 48.36 240.073 48.6667 241.273 49.28C242.499 49.8933 243.459 50.72 244.153 51.76V41.4H250.993V71H244.153V67.8C243.513 68.8667 242.593 69.72 241.393 70.36C240.219 71 238.846 71.32 237.273 71.32C235.433 71.32 233.766 70.8533 232.273 69.92C230.779 68.96 229.593 67.6133 228.713 65.88C227.859 64.12 227.433 62.0933 227.433 59.8ZM244.153 59.84C244.153 58.1333 243.673 56.7867 242.713 55.8C241.779 54.8133 240.633 54.32 239.273 54.32C237.913 54.32 236.753 54.8133 235.793 55.8C234.859 56.76 234.393 58.0933 234.393 59.8C234.393 61.5067 234.859 62.8667 235.793 63.88C236.753 64.8667 237.913 65.36 239.273 65.36C240.633 65.36 241.779 64.8667 242.713 63.88C243.673 62.8933 244.153 61.5467 244.153 59.84ZM269.541 48.44C272.154 48.44 274.234 49.2933 275.781 51C277.354 52.68 278.141 55 278.141 57.96V71H271.341V58.88C271.341 57.3867 270.954 56.2267 270.181 55.4C269.408 54.5733 268.368 54.16 267.061 54.16C265.754 54.16 264.714 54.5733 263.941 55.4C263.168 56.2267 262.781 57.3867 262.781 58.88V71H255.941V48.68H262.781V51.64C263.474 50.6533 264.408 49.88 265.581 49.32C266.754 48.7333 268.074 48.44 269.541 48.44ZM281.534 59.8C281.534 57.5067 281.961 55.4933 282.814 53.76C283.694 52.0267 284.881 50.6933 286.374 49.76C287.867 48.8267 289.534 48.36 291.374 48.36C292.947 48.36 294.321 48.68 295.494 49.32C296.694 49.96 297.614 50.8 298.254 51.84V48.68H305.094V71H298.254V67.84C297.587 68.88 296.654 69.72 295.454 70.36C294.281 71 292.907 71.32 291.334 71.32C289.521 71.32 287.867 70.8533 286.374 69.92C284.881 68.96 283.694 67.6133 282.814 65.88C281.961 64.12 281.534 62.0933 281.534 59.8ZM298.254 59.84C298.254 58.1333 297.774 56.7867 296.814 55.8C295.881 54.8133 294.734 54.32 293.374 54.32C292.014 54.32 290.854 54.8133 289.894 55.8C288.961 56.76 288.494 58.0933 288.494 59.8C288.494 61.5067 288.961 62.8667 289.894 63.88C290.854 64.8667 292.014 65.36 293.374 65.36C294.734 65.36 295.881 64.8667 296.814 63.88C297.774 62.8933 298.254 61.5467 298.254 59.84ZM323.643 48.44C326.256 48.44 328.336 49.2933 329.883 51C331.456 52.68 332.243 55 332.243 57.96V71H325.443V58.88C325.443 57.3867 325.056 56.2267 324.283 55.4C323.509 54.5733 322.469 54.16 321.163 54.16C319.856 54.16 318.816 54.5733 318.043 55.4C317.269 56.2267 316.883 57.3867 316.883 58.88V71H310.043V48.68H316.883V51.64C317.576 50.6533 318.509 49.88 319.683 49.32C320.856 48.7333 322.176 48.44 323.643 48.44Z" fill="#F9F9FF"/>
</g>
<defs>
<filter id="filter0_d" x="0" y="0" width="390" height="123" filterUnits="userSpaceOnUse" color-interpolation-filters="sRGB">
<feFlood flood-opacity="0" result="BackgroundImageFix"/>
<feColorMatrix in="SourceAlpha" type="matrix" values="0 0 0 0 0 0 0 0 0 0 0 0 0 0 0 0 0 0 127 0"/>
<feOffset dx="5" dy="5"/>
<feGaussianBlur stdDeviation="2"/>
<feColorMatrix type="matrix" values="0 0 0 0 0.0281944 0 0 0 0 0.122042 0 0 0 0 0.966667 0 0 0 1 0"/>
<feBlend mode="normal" in2="BackgroundImageFix" result="effect1_dropShadow"/>
<feBlend mode="normal" in="SourceGraphic" in2="effect1_dropShadow" result="shape"/>
</filter>
</defs>
</svg>
